<svg width="358" height="438" viewBox="0 0 358 438" fill="none" xmlns="http://www.w3.org/2000/svg">
<path d="M123 301L120.724 307.315C116.207 308.529 81.0343 307.472 76.4454 307.952C75.2922 308.072 49.2838 308.937 49.5 310.691H122.383C125.338 309.73 129.758 302.955 132.005 299.844C136.017 294.27 139.597 288.095 143.249 282.257C144.606 280.082 144.883 276.611 146.252 275.337C146.504 275.109 151.91 272.058 152.246 272.01C153.207 271.854 157.64 274.881 160.547 275.313C165.256 276.022 173.87 275.866 178.17 273.932C180.549 272.863 182.819 269.679 185.114 268.862C187.408 268.046 191 268.586 192.357 267.697C193.715 266.808 193.763 260.321 195.373 257.498C197.691 253.426 203.962 251.78 205.776 247.48C207.746 242.819 205.379 237.977 207.806 233.893C211.049 228.451 223.879 228.788 228.035 220.487C234.558 207.489 228.972 198.227 215.098 196.113C219.518 189.097 230.991 198.119 232.576 203.272C234.619 209.891 232.925 221.292 227.735 226.193C225.549 228.259 213.344 234.037 212.887 234.758C211.734 236.572 213.644 244.356 211.782 248.681C209.271 254.531 194.267 256.826 195.877 265.799L207.806 263.517C208.731 266.676 211.686 271.89 213.884 274.821C219.735 282.605 261.936 322.944 261.912 326.476L255.305 328.386L202.364 269.343C189.51 272.274 180.236 281.836 166.494 281.103C163.515 280.947 154.397 278.316 152.847 279.229L132.197 311.448H165.833V315.052C159.154 315.052 151.622 314.811 145.135 316.577C141.819 317.478 138.035 320.518 136.269 320.734C129.626 321.515 115.679 319.593 107.523 319.809C79.1603 320.554 49.8129 321.935 21.0902 319.845C18.099 319.629 15.1799 318.175 12.0566 318.656C11.8643 313.07 16.5133 311.063 20.0571 308.625C20.8259 308.096 21.0181 306.499 21.6788 306.078C24.5619 304.252 27.6732 306.787 28.9466 306.066C30.5083 305.177 31.7456 300.048 36.0582 298.738C41.9205 296.96 43.0617 301.633 46.2691 301.766C50.7619 301.958 57.5852 296.612 63.0991 296.96C67.0994 297.213 72.9376 301.85 73.9347 301.85L123 301Z" fill="#4A603D" fill-opacity="0.66"/>
<path d="M329.207 336.687C333.34 346.886 321.988 341.071 317.843 341.504C302.947 343.054 303.356 343.762 287.703 341.54C265.683 338.417 240.757 343.87 219.338 342.741C215.662 342.549 212.37 340.062 209.259 339.738C202.796 339.053 191.961 343.054 187.468 335.498C188.02 334.741 203.757 332.999 206.088 332.975C226.63 332.855 250.956 332.795 271.161 333.816C277.288 334.128 282.814 332.482 289.577 335.462L288.448 330.212L290.37 328.446C293.817 328.206 297.493 327.929 300.929 328.326C303.5 328.614 311.609 333.66 312.401 327.065C308.209 328.362 304.773 326.752 300.785 326.284C299.295 326.104 297.433 327.329 296.388 327.149C295.163 326.932 295.367 324.566 293.841 323.809C293.421 323.593 289.529 324.614 287.967 324.494C278.501 323.761 268.819 322.788 259.545 321.046C264.134 314.199 274.056 318.571 280.519 318.704C293.914 318.98 312.63 316.902 325.075 318.583C329.448 319.172 327.345 324.363 334 325C342.89 325.853 345.929 326.248 345.533 334.344L329.219 336.687H329.207Z" fill="#4A603D" fill-opacity="0.66"/>
<path d="M216.527 106.977C218.497 109.944 233.333 107.037 237.213 109.644C252.182 92.9218 269.396 110.641 260.819 129.525C259.401 132.648 255.221 135.303 254.848 136.901C253.515 142.595 266.753 151.484 252.338 154.091C257.804 163.257 251.617 176.303 244.577 182.958C243.388 184.087 235.88 189.457 234.727 189.925C233.297 190.514 231.027 190.478 231.928 188.328C239.436 182.333 247.016 176.627 248.47 166.38C250.404 152.746 238.319 152.998 236.925 148.421L237.165 134.726C230.486 131.291 222.906 131.207 216.888 136.036L210.293 143.244C208.431 132.732 236.264 124.227 231.351 114.413C228.925 109.572 203.806 114.797 214.497 101.223C216.864 102.448 215.723 105.727 216.539 106.953L216.527 106.977ZM249.142 136.48C249.875 135.603 251.593 135.267 252.314 134.306C260.518 123.362 260.242 104.682 242.367 108.707C236.625 110.004 237.778 115.458 235.327 119.674C233.55 122.714 229.898 124.455 228.3 127.651C233.261 126.329 243.797 130.882 243.604 136.468C243.46 140.937 237.706 145.226 242.775 149.827C246.031 152.782 250.668 153.875 253.479 149.791C251.653 143.676 250.5 143.796 245.13 141.478C246.932 140.168 247.773 138.102 249.13 136.492L249.142 136.48Z" fill="#4A603D" fill-opacity="0.66"/>
<path d="M130.996 339.065L135.813 338.416L136.786 343.053L121.398 365.505C129.423 362.574 130.143 351.606 137.591 347.473C138.841 351.738 134.444 356.723 132.978 360.688C132.45 362.117 133.795 363.919 132.858 365.469C132.174 366.574 128.978 367.787 127.392 369.709C123.981 373.854 108.028 403.129 102.165 397.939C102.033 395.669 104.027 393.831 105.289 392.065C107.535 388.906 118.179 377.349 118.803 375.548C119.116 374.635 118.995 373.661 118.971 372.737C117.818 371.487 109.505 378.767 109.397 374.538C109.349 372.761 126.371 354.369 127.404 349.311C127.537 348.639 127.705 347.329 126.792 347.498L105.157 365.505C104.015 365.433 104.46 363.511 104.784 362.73C106.214 359.186 119.128 346.368 122.611 342.104C127.02 336.71 129.507 329.094 136.414 325.898C141.123 330.391 134.288 335.833 130.996 339.077V339.065Z" fill="#4A603D" fill-opacity="0.66"/>
<path d="M200.25 120.864C204.575 125.525 204.815 130.33 203.95 136.361C203.301 140.865 199.409 145.563 202.052 149.683C206.016 155.858 228.264 150.26 225.789 170.201C223.867 185.673 205.211 196.089 190.52 193.674C185.871 192.905 175.191 184.929 183.864 182.298C195.277 203.825 226.846 179.319 219.266 162.525C216.599 156.602 199.445 154.752 196.971 150.896C192.033 143.196 205.199 128.973 192.213 119.903C186.784 116.119 174.519 114.93 171.539 121.957C169.954 125.705 172.476 131.159 167.635 130.078L163.431 120.972L156.848 121.669L156.211 118.642C161.136 114.774 164.404 118.161 168.812 120.456C175.119 109.536 192.79 112.803 200.262 120.864H200.25Z" fill="#4A603D" fill-opacity="0.66"/>
<path d="M239.424 76.8855C240.277 77.9066 243.797 78.4472 245.791 80.7176C252.458 88.3457 244.085 101.308 235.508 103.614C236.337 98.869 240.817 99.4816 242.115 94.0518C246.86 74.1586 216.335 81.9549 214.017 75.2277C212.587 71.0833 214.954 68.7528 218.666 67.5755L219.375 73.7261L236.697 75.9725L225.897 70.5787C241.214 65.7015 224.924 66.0499 223.651 65.0168C223.014 64.5002 223.086 60.524 222.125 59.3227L216.275 58.5779C223.135 51.3342 224.852 59.8272 227.904 61.6532C229.645 62.6983 232.432 62.398 234.258 63.4191C236.925 64.9087 235.64 68.4885 239.064 67.5755C247.845 47.7183 228.012 48.9076 214.545 53.028L212.864 51.154C215.891 39.6096 199.277 35.6694 195.469 43.9102C194.172 46.7332 197.547 49.9287 194.051 49.5563C187.733 41.4356 200.442 32.7743 208.167 34.1438C215.891 35.5132 213.849 47.2738 217.464 49.0277C227.555 49.292 234.847 41.9641 243.28 50.7696C247.136 54.7939 246.74 61.0886 243.749 65.6535C241.935 68.4284 234.15 70.5908 239.388 76.8855H239.424Z" fill="#4A603D" fill-opacity="0.66"/>
<path d="M169.437 73.5821C165.22 73.9545 163.574 69.9062 159.238 69.9182C152.583 69.9182 145.099 77.7986 144.81 84.2736C144.678 87.3969 147.693 89.379 147.837 92.3102C148.162 98.8331 140.762 99.7821 136.617 102.629C128.269 108.371 120.556 116.936 125.59 127.652C128.184 133.166 130.707 132.601 135.56 134.547C137.374 135.28 138.816 133.839 138.191 137.25C124.461 137.202 116.928 130.271 118.911 116.168C119.547 111.639 125.397 109.404 119.86 103.939C112.676 96.851 94.068 120.24 108.123 125.309L105.781 129.454L110.562 131.268C111.907 135.004 101.083 136.109 104.555 139.665C105.672 140.806 113.289 136.457 111.751 140.253C109.709 143.833 103.402 144.698 100.843 141.587C98.2845 138.476 103.138 132.313 102.093 127.111C101.456 123.952 98.0803 122.811 97.9241 118.666C97.4917 106.461 119.968 91.4212 125.578 107.23C129.013 100.203 140.534 98.8451 141.735 90.9527C142.42 86.4839 140.858 82.0752 142.708 77.5103C143.621 75.2519 150.396 69.0293 152.667 68.2484C157.52 66.5907 168.644 66.9631 169.425 73.5942L169.437 73.5821Z" fill="#4A603D" fill-opacity="0.66"/>
<path d="M60.9606 394.037C59.4469 395.358 56.9603 394.517 54.9301 395.658C50.7737 397.989 47.0617 404.668 41.5118 403.971L40.9111 401.581C42.3166 401.424 43.5179 400.812 44.527 399.827C69.5497 375.825 94.5124 350.922 114.31 322.416L120.16 325.275C111.078 336.615 102.093 347.967 92.6024 358.959C83.1002 369.963 72.0364 384.366 60.9606 394.037Z" fill="#4A603D" fill-opacity="0.66"/>
<path d="M234.138 347.654L239.171 360.664C243.484 362.478 244.252 355.186 246.907 355.895C248.133 358.478 250.787 359.823 252.325 361.625C255.857 365.77 271.281 386.215 272.879 390.108C273.696 392.078 273.011 392.414 272.735 394.336C270.08 394.985 270.068 392.774 268.903 391.585C262.584 385.17 256.806 376.93 250.523 370.322C248.745 371.235 250.775 373.218 251.376 374.275C253.01 377.158 263.966 392.342 261.935 394.336C255.268 395.67 255.557 390.36 252.854 387.213C242.907 375.584 232.312 362.995 229.513 347.498L234.138 347.666V347.654Z" fill="#4A603D" fill-opacity="0.66"/>
<path d="M226.618 311.952C230.234 314.823 233.573 314.871 230.69 319.856C234.606 321.25 235.676 319.652 239.099 318.667L236.649 325.262C242.295 326.752 237.333 333.191 232.6 331.809L231.303 325.875L227.699 330.656L225.885 322.271L221.104 324.661C222.233 318.475 221.657 313.466 215.686 310.258L220.503 330.668L216.239 327.424L199.661 283.505L202.484 280.25C203.577 280.274 212.082 296.347 213.896 298.846C217.873 304.312 221.585 307.94 226.63 311.964L226.618 311.952Z" fill="#4A603D" fill-opacity="0.66"/>
<path d="M132.185 145.659C129.77 146.067 129.026 143.545 126.719 143.232C121.59 142.548 117.589 145.695 115.667 150.176C111.331 160.29 121.722 165.264 121.289 167.726C112.652 174.586 111.583 182.514 124.208 184.196C127.14 173.048 147.009 159.329 150.192 176.892C146.144 178.214 143.285 174.586 139.981 174.37C130.563 173.745 122.647 191.908 131.008 199.092C136.221 203.573 144.102 201.254 150.216 203.909C153.7 207.093 140.27 207.069 138.876 206.9C129.41 205.699 123.704 196.653 123.223 187.656C109.168 186.515 105.204 175.451 117.758 167.883L117.734 166.117C108.376 161.155 105.937 148.29 116.124 142.247C121.686 138.944 129.77 138.451 132.149 145.659H132.185Z" fill="#4A603D" fill-opacity="0.66"/>
<path d="M120.184 191.331C103.15 209.735 132.185 205.615 135.212 211.717C137.543 216.426 134.612 221.688 132.389 225.772C137.627 236.368 138.888 223.225 145.411 222.565C139.225 230.013 139.237 242.71 147.189 249.005C152.739 253.402 169.557 254.579 162.83 266.988C161.581 252.705 144.703 256.717 138.408 246.975C134.42 240.8 137.158 234.205 136.522 233.328C135.501 231.923 129.65 231.466 128.786 227.706C135.897 207.104 129.602 214.36 116.244 211.477C106.141 209.303 109.757 190.346 120.196 191.319L120.184 191.331Z" fill="#4A603D" fill-opacity="0.66"/>
<path d="M254.283 191.739C258.236 196.34 258.596 196.556 256.782 202.371C254.788 208.725 252.145 211.188 245.13 210.539C248.71 217.747 243.1 230.12 236.384 233.724C232.456 235.826 223.242 236.211 220.672 238.049C218.521 239.586 220.467 245.172 216.299 244.163C215.266 232.727 226.702 233.976 233.513 229.556C237.85 226.745 243.496 218.96 242.751 213.591C242.331 210.503 238.799 210.047 239.123 206.935C241.91 206.635 241.982 209.458 245.154 208.894C250.031 208.029 254.92 202.07 253.358 196.953C251.797 191.835 239.183 192.22 252.938 181.696C259.605 176.591 266.344 178.201 261.948 166.092C271.029 168.434 268.807 177.144 262.548 181.708C258.776 184.459 253.971 184.351 251.136 188.328C250.68 190.514 253.371 190.658 254.283 191.739Z" fill="#4A603D" fill-opacity="0.66"/>
<path d="M321.988 383.524L296.184 365.492C293.626 362.141 274.561 348.458 275.138 345.719C275.462 344.218 277.528 343.857 279.09 344.098C282.538 344.626 292.977 356.062 296.833 358.849C303.26 363.498 312.75 367.571 319.525 372.196C322.721 375.115 322.012 379.644 321.976 383.548L321.988 383.524Z" fill="#4A603D" fill-opacity="0.66"/>
<path d="M175.791 44.4126C177.978 46.0463 184.417 45.8301 187.792 47.4278C200.274 53.3742 186.122 59.6449 186.291 62.1796L193.462 63.9815C191.576 68.5104 183.912 67.4292 182.819 63.1406C181.329 57.3264 193.799 45.4097 170.65 49.5661C169.989 30.5498 148.246 38.0097 153.82 54.3592C152.438 55.5845 146.24 49.494 141.303 53.0618C139.537 54.3472 142.432 58.0592 137.002 56.7618C138.155 49.506 143.981 46.5989 150.204 50.7674C148.438 39.3312 158.589 31.4748 169.136 36.0517C173.209 37.8175 173.833 42.947 175.791 44.4006V44.4126Z" fill="#4A603D" fill-opacity="0.66"/>
<path d="M150.577 187.367C154.445 191.92 164.5 191.8 166.77 201.771C170.975 220.186 150.024 219.49 146.901 231.851C146.384 233.893 148.751 239.01 144.21 238.158C140.234 223.129 160.644 220.306 152.619 205.735C156.739 205.771 158.601 210.66 158.637 214.144C163.13 214.841 162.638 205.723 161.929 203.02C159.346 193.266 134.095 192.653 149.628 179.307C150.445 182.394 147.946 184.256 150.589 187.367H150.577Z" fill="#4A603D" fill-opacity="0.66"/>
<path d="M229.549 397.906C229.177 391.094 224.396 390.83 221.225 387.599C219.411 385.749 215.675 378.205 214.233 375.37C212.143 371.261 203.77 353.482 203.277 350.203C202.641 345.986 207.037 344.497 208.827 348.341C215.35 365.135 223.987 381.568 234.282 396.14L229.549 397.906Z" fill="#4A603D" fill-opacity="0.66"/>
<path d="M267.774 350.057L269.131 359.487L263.329 359.295L260.134 352.268C258.944 352.136 256.157 351.751 257.142 354.082C257.443 354.802 264.987 365.109 266.212 366.671C268.843 370.047 275.882 375.921 277.985 379.02C279.787 381.675 280.375 383.91 279.955 387.117C278.838 388.414 274.837 383.886 273.924 382.949C267.63 376.462 253.671 357.325 251.364 349.048C250.836 347.15 250.415 345.997 252.902 346.297C256.974 346.778 263.197 349.589 267.786 350.057H267.774Z" fill="#4A603D" fill-opacity="0.66"/>
<path d="M150.204 68.7871C146.516 69.3997 148.186 65.4956 145.519 63.2732C139.356 58.1197 122.058 66.0121 120.436 73.2559C118.814 80.4996 121.085 87.0466 122.574 94.014C121.085 95.7319 115.151 86.494 114.826 85.557C110.538 73.0997 122.839 58.8645 135.224 57.9395C142.3 57.4109 150.793 60.5463 150.204 68.7751V68.7871Z" fill="#4A603D" fill-opacity="0.66"/>
<path d="M130.996 397.928L143.466 376.172C146.733 366.73 148.751 355.33 158.013 349.9L159.287 353.528L144.006 385.122C141.844 386.828 134.252 400.907 130.984 397.916L130.996 397.928Z" fill="#4A603D" fill-opacity="0.66"/>
<path d="M203.073 81.9885C216.552 80.7632 223.375 86.0969 222.282 100.008L216.804 90.4816C210.017 81.2677 199.77 88.1751 198.268 86.7936C198.172 84.0307 200.767 83.3099 200.791 80.1986C200.839 75.3094 195.505 74.3964 191.589 74.6607C189.619 74.7928 189.246 79.3937 187.456 77.1954C185.054 74.2522 192.682 70.8166 194.616 70.4562C202.1 69.0387 206.581 75.3814 203.061 82.0005L203.073 81.9885Z" fill="#4A603D" fill-opacity="0.66"/>
<path d="M187.445 293.428C188.862 303.435 196.767 316.109 198.04 325.575C198.809 331.305 195.782 332.674 192.875 327.052C188.514 318.631 187.241 308.06 183.096 299.459C182.376 297.885 185.643 291.578 187.445 293.428Z" fill="#4A603D" fill-opacity="0.66"/>
<path d="M201.848 204.545C205.536 210.972 206.761 215.332 203.674 222.552C202.737 224.739 192.081 239.154 189.871 236.968C190.736 229.664 199.541 221.315 200.418 214.48C200.947 210.383 195.673 204.701 201.848 204.545Z" fill="#4A603D" fill-opacity="0.66"/>
<path d="M164.632 283.83C165.93 289.104 150.037 310.078 147.214 310.222C141.58 310.511 151.082 300.624 151.442 300.059C154.794 294.678 157.412 285.824 164.632 283.83Z" fill="#4A603D" fill-opacity="0.66"/>
<path d="M180.236 239.371C180.056 244.489 172.296 244.765 171.803 249.618C171.142 256.105 187.143 263.433 176.656 271.794C179.407 262.268 168.475 258.784 168.62 250.988C168.752 243.612 173.389 240.476 180.248 239.371H180.236Z" fill="#4A603D" fill-opacity="0.66"/>
<path d="M301.542 395.5C299.668 395.68 299.26 396.857 297.362 395.656C295.464 394.455 283.391 379.967 284.76 378.73C289.289 377.841 289.698 382.346 292.569 384.724C296.449 387.944 302.876 389.049 301.542 395.5Z" fill="#4A603D" fill-opacity="0.66"/>
<path d="M175.84 73.1974C178.014 74.711 182.099 74.9993 183.745 77.9304C184.273 80.1888 180.225 85.2703 177.822 82.5914L178.579 78.471L177.21 75.9843L172.428 78.435L169.449 76.609C172.032 74.1464 171.071 71.912 170.626 68.8007C173.906 68.0198 174.326 72.1522 175.828 73.1974H175.84Z" fill="#4A603D" fill-opacity="0.66"/>
<path d="M171.239 317.454C173.209 317.911 173.113 320.229 171.227 321.058C162.914 319.749 154.313 319.328 146.036 321.094C140.87 320.614 150.408 317.454 150.817 317.454C155.946 317.454 167.13 316.493 171.239 317.454Z" fill="#4A603D" fill-opacity="0.66"/>
</svg>
