<svg width="1512" height="907" viewBox="0 0 1512 907" fill="none" xmlns="http://www.w3.org/2000/svg">
<g opacity="0.4" clip-path="url(#clip0_195_55)">
<path d="M1214.78 40.8534C1222.29 55.4905 1166.13 61.4143 1179.06 72.1044C1182.18 74.683 1196.94 64.4654 1203.84 63.4133C1221.08 60.7841 1232.88 66.6766 1247.84 67.2307C1256.66 67.5569 1271.91 56.667 1279.74 67.4948C1284 73.3897 1278.83 90.4637 1284.22 85.5732C1296.09 74.7934 1304.76 82.6898 1314.98 81.0756C1321.28 80.0809 1326.15 73.6792 1330.05 73.2728C1368.21 69.2936 1399.57 103.419 1436.48 90.3669C1439.68 89.2336 1435.75 96.7235 1438.39 98.8579C1441.07 101.023 1444.76 101.249 1447.22 98.8339C1449.43 96.6587 1447.46 93.9694 1448.12 90.9351C1454.7 60.6115 1547.12 96.9176 1523.26 116.76C1504.65 132.238 1497.8 113.644 1485.08 112.391C1483.83 112.268 1480.81 113.989 1465.17 121.33C1455.72 125.765 1482.48 126.164 1478.59 139.152C1471.67 162.272 1412.5 176.069 1418.28 152.637C1419.68 146.956 1430.34 136.957 1424.94 139.216C1417.31 142.409 1402.52 138.306 1396.94 140.168C1387.32 143.38 1381.98 156.872 1375.99 159.087C1371.12 160.89 1355.99 156.028 1346.71 156.806C1326.41 158.509 1317.62 173.34 1304.26 186.145C1297.67 192.453 1328.17 183.882 1326.62 192.867C1323.61 210.265 1318 232.176 1302.18 242.277C1293.16 248.038 1276.2 245.278 1273.64 262.964C1272.57 270.359 1283.97 273.352 1279.69 277.777C1270.04 287.747 1264.49 258.712 1250.69 257.258C1243.64 256.514 1239.06 256.742 1232.73 259.931C1213.06 269.825 1251.66 293.715 1245.47 314.838C1240.64 331.3 1212.25 354.236 1194.77 340.399C1200.3 340.37 1190.43 336.965 1194.77 340.399C1188.61 340.432 1185.48 345.668 1183.61 351.531C1180.19 362.188 1203.17 362.803 1201.55 373.875C1200.45 381.356 1196.89 391.228 1189.62 389.128C1176.78 385.415 1167.75 385.736 1156.73 380.637C1150.36 377.69 1161.71 367.618 1156.73 362.671C1151.81 357.775 1144.16 367.186 1138.95 362.591C1133.67 357.929 1143.14 347.853 1136.85 344.673C1107.79 329.972 1078.1 359.542 1080.67 389.569C1081.11 394.661 1072.53 390.621 1067.59 389.312C1048.78 384.333 1076.77 334.186 1058.32 340.367C1037.38 347.386 1040.08 326.664 1028.49 323.265C1016.48 319.742 988.184 320.082 974.476 314.902C968.064 312.48 958.468 291.405 955.477 306.875C949.466 337.965 989.033 318.463 1000.2 338.07C1006.7 349.485 937.873 379.86 937.679 376.14C936.824 359.812 927.139 352.963 920.424 341.928C912.95 329.643 902.975 294.071 892.927 313.582C880.963 336.812 917.192 356.3 930.652 376.628C933.27 380.581 932.62 388.713 933.349 389.409C937.029 392.915 968.969 376.02 964.392 391.689C958.574 411.608 915.257 433.448 916.391 458.089C916.809 467.172 927.472 477.959 923.754 489.364C921.27 496.982 907.966 498.304 904.147 505.826C900.972 512.077 902.648 520.998 899.273 527.777C889.915 546.575 865.158 583.435 839.988 567.607C836.612 565.485 814.378 509.499 813.235 502.368C811.281 490.18 818.87 478.352 816.804 463.651C814.956 450.502 803.421 443.636 801.422 434.793C800.188 429.327 805.472 421.732 801.615 416.338C785.921 394.394 746.507 412.576 726.172 406.487C718.393 404.157 698.361 381.302 697.058 372.963C696.745 370.962 697.782 337.957 698.346 336.206C699.967 331.171 735.255 284.603 739.665 283.235C763.754 275.759 811.03 259.243 803.246 283.235C795.956 305.707 825.482 298.305 850.392 291.278C879.422 283.088 912.662 305.875 906.307 268.862C905.394 263.542 900.436 275.289 895.504 277.481C879.727 284.492 866.1 240.669 857.178 255.449C853.552 261.457 861.117 276.62 854.945 273.279C837.571 263.876 841.533 242.477 819.077 233.121C812.603 230.424 821.564 265.653 815.746 261.736C803.478 253.477 806.176 236.984 789.826 239.275C786.593 239.729 762.526 254.07 761.312 255.553C750.986 268.171 759.176 278.505 727.484 273.32C715.412 271.344 717.854 249.488 727.524 241.996C735.84 235.554 745.713 250.343 754.358 244.349C763.881 237.747 746.03 229.738 749.94 221.869C757.15 207.359 773.22 203.15 786.265 195.5C790.851 192.811 795.746 190.236 799.078 192.747C804.802 197.061 813.246 167.236 808.105 163.625C800.879 158.549 787.528 170.127 785.593 161.512C780.191 137.463 804.975 127.555 819.637 110.582C822.437 107.34 822.198 100.546 825.935 96.7131C834.042 88.3981 876.246 84.2363 880.906 85.4211C884.241 86.2688 887.133 90.5129 887.133 94.2963C887.133 104.736 899.246 99.2363 899.246 108.236C899.246 117.236 921.409 119.464 939.687 112.039C951.331 107.308 1005.86 93.2612 1016.13 95.0165C1043.75 99.7363 1065.25 77.7363 1065.25 77.7363C1071.05 74.8553 1083.75 82.7363 1089.64 63.2133C1088.31 64.1656 1089.87 62.4763 1089.64 63.2133C1096.21 58.5358 1102.43 70.5621 1109.85 67.4148C1120.72 62.8051 1110.4 52.4788 1112.02 50.0806C1115.75 44.556 1148.43 45.1858 1156.72 43.1262C1163.66 41.4005 1169.13 32.1849 1176.79 32.0023C1185.57 31.7927 1201.36 46.2953 1214.8 40.8374C1214.81 40.8331 1214.77 40.8434 1214.78 40.8534Z" fill="#ACC6AA"/>
<path d="M387.203 123.548C392.069 129.566 405.426 134.207 403.073 140.53C396.927 153.014 365.468 165.394 368.277 180.4C376.295 199.839 406.698 197.622 418.862 210.25C427.257 218.965 420.207 232.506 439.046 228.041C432.923 216.212 446.328 198.318 446.336 194.477C446.336 190.611 432.779 172.621 439.11 160.945C460.085 168.019 484.534 158.112 492.721 180.848C495.337 195.917 521.219 209.658 523.908 216.973C530.046 233.674 492.998 232.205 487.5 237.999C484.283 253.045 506 255.154 481.957 255.154C461.5 255.154 451.826 280.987 447.601 288.046C449.833 284.933 443.663 294.632 447.601 288.046C445.232 291.343 426 322.999 421.247 324.186C423.158 322.082 421 323.999 421.247 324.186C415.629 327.636 369.909 323.698 363.979 331.813C354.48 344.802 373.054 373.668 398.807 366.609L416.694 388.953L421.183 415.723C408.795 418.852 407.258 402.966 401.96 399.253C384.034 386.681 347.085 386.312 334.801 375.869C328.895 370.851 331.432 361.784 327.35 356.35C319.916 346.458 302.99 337.039 299.964 322.082C294.459 303.723 263.2 307.036 257.886 286.229C254.004 271.024 258.934 253.497 253.444 241.485C249.579 233.026 224.922 207.969 217.007 199.414C215.063 197.31 216.303 191.099 214.35 189.171C206.66 181.552 174.936 173.277 163.236 171.565C154.585 170.3 150.328 180.784 146.246 165.418L123.782 192.276C123.214 180.968 73.0044 175.646 95.1082 158.816C100.63 154.615 92.2971 176.58 89 162.999L85.8969 147.5C79.5587 129.574 86.9053 141.97 85.8969 129.598C85.2967 122.259 86.153 128.797 85.8969 120.739C98.7494 124.828 99.3016 112.56 104.688 110.335C129.456 100.115 165.173 114.704 191.022 116.233C223.481 118.154 257.157 110.415 291.554 120.723L318.347 120.731C336.249 128.781 351.887 134.311 372.094 127.501L376.592 113.952C386.203 120.002 381.049 115.921 387.195 123.532L387.203 123.548Z" fill="#ACC6AA"/>
<path d="M547.115 455.235L608.345 474.442C614.379 488.671 600.342 494.657 596.693 504.132C592.756 514.36 591.979 533.118 584.305 540.929C577.822 547.523 564.994 546.579 559.648 552.037C550.837 561.024 544.5 587 519.842 608.5C502.948 620 494.857 619.893 489.367 626.807C487.046 629.736 485.254 648.671 479.195 654.905C470.624 663.725 473.746 673.232 474.546 681.867C475.706 694.375 487.83 688.853 488.207 697.408C477.571 697.624 460.237 698.577 455.451 687.509C442.206 656.874 475.386 575.845 470.624 538.56C467.727 515.88 420.439 487.846 430.938 454.739C432.891 448.584 441.254 445.231 442.895 439.357C445.496 430.066 434.42 410.091 459.42 406.73C462.686 406.289 499.267 411.091 502.948 412.26C510.174 414.556 513.295 422.847 519.842 426.665C533.847 434.828 547.956 427.281 547.107 455.251L547.115 455.235Z" fill="#ACC6AA"/>
<path d="M648.237 26.4371C647.012 37.337 625.749 29.102 630.374 44.2994C630.374 44.2994 647.263 63.9155 657.208 57.7201C667.099 51.558 674.142 42.0906 683.913 55.4954C691 70.0734 668.124 77.247 670.893 86.1462C672.245 90.5157 683.057 86.6504 678.871 99.4149C678.871 99.4149 682.994 121.081 670.893 125.573C664.185 128.064 653.663 121.391 652.702 129.297C651.947 135.513 665.974 138.101 661.633 142.614C642.5 162.509 631.591 153.266 616.658 162.509C611.928 165.43 603.757 164.182 599.163 167.367C592.345 172.105 588.72 193.816 583.142 201.075C561.742 203.356 547.5 149.437 554.259 132.437V131.49C531.043 125.048 538.83 112.948 527.658 100.039C516.486 87.1305 507.643 75.1903 491.733 75.6305L488 52.9367C501.833 36.5764 514.934 40.5301 517.182 39.9619C528.923 36.9849 536.5 47.9367 556.332 44.5315C556.332 44.5315 601.5 31.9214 621.5 26.4374C641.5 20.9534 648.237 26.4371 648.237 26.4371Z" fill="#ACC6AA"/>
<path d="M1297.46 523.509C1293.66 551.754 1313.51 523.493 1322 523.501C1330.5 523.509 1367.76 571.95 1363.64 596.127C1361.39 609.355 1348.9 619.719 1350.81 634.94C1318.3 645.704 1317.08 621.384 1306.29 614.821C1301.81 612.1 1304 626.754 1293.66 616.43C1292.06 615.47 1291.67 608.323 1288.63 606.314C1271.98 595.294 1239.51 628.217 1222.5 614.821C1205.49 601.426 1201.62 577.528 1212 565.58C1219.1 557.409 1232.81 559.754 1240.68 555.032C1247.35 551.023 1240.68 540.927 1253.35 532.72C1260.5 528.087 1263.22 536.738 1267.79 535.913C1274.21 534.761 1283.09 517.363 1297.46 523.501V523.509Z" fill="#ACC6AA"/>
<path d="M1270 490C1263 496.501 1181.44 465.5 1168.94 434.001C1156.44 402.502 1154.44 462.502 1181 478.5C1207.56 494.498 1270 490 1270 490Z" fill="#ACC6AA"/>
<path d="M1337.63 503.837L1318.35 507.166C1318.35 507.166 1312.5 509 1309.16 504.117C1305.82 499.234 1295 492 1297.45 481.509C1299.9 471.018 1344.77 491.033 1337.62 503.829L1337.63 503.837Z" fill="#ACC6AA"/>
<path d="M1015.76 62.6387C1015.35 70.3854 1003.12 67.4404 996.217 72.082C985.813 79.0925 995.989 91.0264 986 98.3153C986 98.3153 962 104 961 89.5C960 75 992.664 62.6547 1015.76 62.6387Z" fill="#ACC6AA"/>
<path d="M1380 223.5C1372 219 1378.78 187.261 1400.22 178.834C1403.11 196.792 1394.5 228 1380 223.5Z" fill="#ACC6AA"/>
<path d="M737.047 195.214C732.689 191.2 740.906 181.229 741.406 177.729C741.906 174.229 731.406 174.229 730.237 168.517C729.068 162.805 732.606 155 732.606 155C732.606 155 759.406 184.729 759.295 188.532C759.184 192.335 741.406 199.229 737.047 195.214Z" fill="#ACC6AA"/>
</g>
<defs>
<clipPath id="clip0_195_55">
<rect width="1427" height="697.502" fill="white" transform="translate(85)"/>
</clipPath>
</defs>
</svg>
